<svg width="160" height="160" viewBox="0 0 160 160" fill="none" xmlns="http://www.w3.org/2000/svg">
<path d="M106.667 3.33344H30.0001C26.3182 3.33344 23.3335 6.31812 23.3335 10V150C23.3335 153.682 26.3182 156.667 30.0001 156.667H130C133.682 156.667 136.667 153.682 136.667 150V33.3334L106.667 3.33344Z" fill="white"/>
<path d="M113.334 33.3334H136.667L106.667 3.33344V26.6669C106.667 30.3484 109.652 33.3334 113.334 33.3334Z" fill="#00AFCB" fill-opacity="0.5"/>
<path d="M104.646 76.7C100.614 64.6347 89.264 56.5441 76.543 56.6666C60.6108 56.3916 47.4643 69.0684 47.1596 85C47.1596 85.6666 47.1961 86.3334 47.2296 87C39.2743 88.3978 33.4386 95.2569 33.333 103.333C33.5155 112.703 41.2461 120.158 50.6164 120H104.196C104.786 120 105.34 119.967 105.926 119.933C117.862 119.497 127.185 109.467 126.748 97.5306C126.316 85.7119 116.47 76.4325 104.646 76.7Z" fill="#00AFCB" fill-opacity="0.5"/>
<path d="M139.957 33.1234C139.94 32.8313 139.883 32.5431 139.787 32.2669C139.75 32.1603 139.723 32.0569 139.677 31.9534C139.514 31.5906 139.288 31.26 139.01 30.9769L109.01 0.976875C108.727 0.698125 108.396 0.4725 108.033 0.310312C107.93 0.26375 107.83 0.236875 107.723 0.200312C107.446 0.11 107.158 0.05625 106.867 0.0403125C106.8 0.0365625 106.737 0 106.667 0H30C24.4772 0 20 4.47719 20 10V150C20 155.523 24.4772 160 30 160H130C135.523 160 140 155.523 140 150V33.3334C140 33.26 139.963 33.1966 139.957 33.1234ZM128.62 30H113.333C111.492 30 110 28.5075 110 26.6666V11.38L128.62 30ZM130 153.333H30C28.1591 153.333 26.6666 151.841 26.6666 150V10C26.6666 8.15906 28.1591 6.66656 30 6.66656H103.333V26.6666C103.333 32.1894 107.811 36.6666 113.333 36.6666H133.333V150C133.333 151.841 131.841 153.333 130 153.333Z" fill="#00AFCB"/>
<path d="M107.04 73.51C101.967 61.1722 89.8822 53.1766 76.5434 53.3335C58.9897 53.0794 44.4541 66.9056 43.83 84.45C35.6469 87.1266 30.0825 94.7241 30 103.333C30.1828 114.544 39.4056 123.491 50.6166 123.333H104.197C104.863 123.333 105.457 123.3 106.167 123.26C119.92 122.649 130.573 111.004 129.962 97.2513C129.404 84.6885 119.575 74.5088 107.04 73.51ZM105.707 116.607C105.193 116.637 104.707 116.667 104.19 116.667H50.6166C43.0872 116.825 36.8484 110.862 36.6666 103.333C36.7794 96.8616 41.4725 91.3822 47.85 90.2766C49.4997 89.9232 50.6466 88.4213 50.5534 86.7366C50.5234 86.16 50.4934 85.58 50.4934 85C50.805 70.9125 62.455 59.7322 76.5434 60C87.7956 59.9306 97.8328 67.0616 101.47 77.71C101.9 79.0778 103.156 80.0175 104.59 80.0435C114.693 79.8572 123.035 87.8963 123.221 97.9997C123.404 107.928 115.634 116.19 105.713 116.617L105.707 116.607Z" fill="#00AFCB"/>
<path d="M40 20H46.6666V26.6666H40V20Z" fill="#00AFCB"/>
<path d="M53.3335 20H66.6669V26.6666H53.3335V20Z" fill="#00AFCB"/>
<path d="M40 33.3334H66.6666V40H40V33.3334Z" fill="#00AFCB"/>
</svg>
